<svg xmlns="http://www.w3.org/2000/svg" width="736" height="769" fill="none" viewBox="0 0 736 769">
  <path stroke="#259479" stroke-width="46" d="M333.74 322.026c-59.369 32.883-118.645 50.335-165.842 52.81-48.919 2.565-76.818-10.857-86.835-28.944-10.018-18.086-6.596-48.856 21.53-88.964 27.136-38.695 73.375-79.684 132.744-112.566 59.369-32.882 118.644-50.335 165.842-52.81 48.919-2.565 76.818 10.858 86.835 28.944 10.017 18.086 6.596 48.856-21.53 88.964-27.136 38.695-73.376 79.684-132.744 112.566Zm312.237 86.89c10.112 18.255 14.969 39.188 14.295 61.601-.674 22.413-6.867 45.869-18.223 69.028-11.357 23.159-27.656 45.567-47.967 65.946-20.31 20.379-44.235 38.328-70.407 52.824-26.172 14.496-54.079 25.254-82.129 31.661-28.049 6.406-55.691 8.335-81.347 5.676-25.656-2.659-48.825-9.853-68.182-21.171-19.357-11.319-34.524-26.541-44.635-44.797m7.761 12.922-173-296m569.678 73.431-163-298M634.802 373.5c13.871-5.077 36.692-19.271 47.176-29.093 10.483-9.821 18.643-21.555 23.96-34.455 5.318-12.9 7.676-26.683 6.926-40.472-.751-13.79-4.594-27.283-11.285-39.623-6.691-12.34-16.083-23.255-27.58-32.052-11.497-8.796-24.845-15.282-39.197-19.043C620.45 175.001 612.5 174 593 174c-14.772 1.912-35.814 4.238-48.5 11.5"/>
</svg>
